<svg xmlns="http://www.w3.org/2000/svg" xmlns:xlink="http://www.w3.org/1999/xlink" width="89.903" height="21.314" viewBox="0 0 89.903 21.314">
  <defs>
    <linearGradient id="linear-gradient" x2="1.053" gradientUnits="objectBoundingBox">
      <stop offset="0" stop-color="#eb5a24"/>
      <stop offset="0.058" stop-color="#ea4d2d"/>
      <stop offset="0.164" stop-color="#ea3c38"/>
      <stop offset="0.297" stop-color="#e93140"/>
      <stop offset="0.511" stop-color="#e92a45"/>
      <stop offset="1" stop-color="#e92846"/>
    </linearGradient>
  </defs>
  <g id="WMC_logo_4-05-01" transform="translate(-1.986 -0.9)">
    <g id="Group_1" data-name="Group 1" transform="translate(1.986 0.9)">
      <path id="Path_5" data-name="Path 5" d="M30.267,4.177,23.323,20.486c0,.161-.161.161-.161.323h0c0,.161-.161.161-.161.323h-.161c-.161.161-.161.161-.323.161v.161c-.161.161-.161.161-.323.161h0c-.161,0-.161,0-.323.161H20.74c-.161,0-.161-.161-.323-.161h0a.347.347,0,0,1-.323-.323h0c-.161,0-.161-.161-.323-.161h-.161c-.161-.161-.161-.161-.161-.323h0a.5.5,0,0,1-.161-.323l-3.068-7.266L13.15,20.486c0,.161-.161.161-.161.323h0l-.323.323h0l-.323.323c-.161.161-.323.161-.323.323h-.161c-.161,0-.161,0-.323.161H10.244c-.161,0-.161-.161-.323-.161H9.759a.347.347,0,0,1-.323-.323h0a.564.564,0,0,0-.323-.161H8.952c0-.161-.161-.161-.161-.323h0a.5.5,0,0,1-.161-.323L2.17,4.177A2.141,2.141,0,0,1,3.462,1.27,2.025,2.025,0,0,1,6.207,2.562l5.006,11.3,2.907-7.1a2.164,2.164,0,0,1,2.1-1.292,2.163,2.163,0,0,1,2.1,1.292l2.907,7.1,5.006-11.3A2.141,2.141,0,0,1,29.136,1.27,2.338,2.338,0,0,1,30.267,4.177Z" transform="translate(-1.986 -0.786)"/>
      <path id="Path_6" data-name="Path 6" d="M38.9,9.558h0V19.731a2.207,2.207,0,0,1-2.261,2.261,2.309,2.309,0,0,1-2.261-2.261V9.558a4.28,4.28,0,1,0-8.558.161v10.5c0,.161,0,.161-.161.323V20.7a2.327,2.327,0,0,1-2.1,1.292h-.484A2.422,2.422,0,0,1,21.3,19.731V9.72h0V3.261A2.207,2.207,0,0,1,23.561,1a2.52,2.52,0,0,1,2.1,1.292A8.681,8.681,0,0,1,30.181,1,9.02,9.02,0,0,1,36.8,3.907,9.02,9.02,0,0,1,43.422,1a8.822,8.822,0,0,1,8.72,8.881V19.892a2.261,2.261,0,1,1-4.521,0V9.72a4.361,4.361,0,0,0-8.72-.161Z" transform="translate(9.887 -0.839)"/>
      <path id="Path_7" data-name="Path 7" d="M41.3,11.557A10.86,10.86,0,0,1,51.957.9a12.177,12.177,0,0,1,6.782,2.261,2.31,2.31,0,0,1,.484,3.068,2.5,2.5,0,0,1-3.229.484,6.7,6.7,0,0,0-4.037-1.292,6.383,6.383,0,0,0-6.3,6.136,6.246,6.246,0,0,0,6.3,5.975,7.066,7.066,0,0,0,4.037-1.292,2.52,2.52,0,0,1,3.229.484,2.288,2.288,0,0,1-.484,3.068,11.766,11.766,0,0,1-6.782,2.261A10.614,10.614,0,0,1,41.3,11.557Z" transform="translate(22.182 -0.9)"/>
    </g>
    <path id="Path_27" data-name="Path 27" d="M64.592,7.5a3.7,3.7,0,0,1-.646,4.36,3.482,3.482,0,0,1-4.683.484c-2.745-2.1-5.006-2.1-7.751-.161a3.577,3.577,0,0,1-4.844-.807,3.511,3.511,0,0,1,0-4.844,3.59,3.59,0,0,1,5.006-.646c2.584,1.938,4.844,2.1,7.589,0C60.879,4.593,63.462,5.4,64.592,7.5Z" transform="translate(26.873 2.604)" fill="url(#linear-gradient)"/>
  </g>
</svg>
