<svg xmlns="http://www.w3.org/2000/svg" width="50" height="38.086" viewBox="0 0 50 38.086">
  <g id="email" transform="translate(546 70)">
    <g id="Group_2" data-name="Group 2" transform="translate(-546 -70)">
      <path id="Path_31" data-name="Path 31" d="M45.605,61H4.395A4.4,4.4,0,0,0,0,65.395v29.3a4.4,4.4,0,0,0,4.395,4.395H45.605A4.4,4.4,0,0,0,50,94.691v-29.3A4.4,4.4,0,0,0,45.605,61ZM45,63.93,25.093,83.835,5.016,63.93ZM2.93,94.085v-28.1L17.039,79.975ZM5,96.156,19.119,82.038l4.947,4.9a1.465,1.465,0,0,0,2.067,0l4.824-4.824L45,96.156ZM47.07,94.085,33.029,80.043,47.07,66Z" transform="translate(0 -61)" fill="#fff"/>
    </g>
  </g>
</svg>
