<svg xmlns="http://www.w3.org/2000/svg" width="36.462" height="48.086" viewBox="0 0 36.462 48.086">
  <g id="placeholder-filled-point" transform="translate(-10.883 2)">
    <path id="Path_32" data-name="Path 32" d="M29.113,0a16.249,16.249,0,0,0-16.23,16.231A15.832,15.832,0,0,0,14.3,22.856c4.058,8.88,11.838,18.255,14.127,20.917a.9.9,0,0,0,1.369,0c2.288-2.661,10.068-12.036,14.127-20.917a15.825,15.825,0,0,0,1.419-6.625A16.251,16.251,0,0,0,29.113,0Zm0,24.662a8.431,8.431,0,1,1,8.431-8.431A8.441,8.441,0,0,1,29.113,24.662Z" transform="translate(0)" fill="none" stroke="#fff" stroke-width="4"/>
  </g>
</svg>
