<svg id="information" xmlns="http://www.w3.org/2000/svg" width="50" height="50" viewBox="0 0 50 50">
  <path id="Path_28" data-name="Path 28" d="M25,0A25,25,0,1,0,50,25,25.029,25.029,0,0,0,25,0Zm0,45.455A20.455,20.455,0,1,1,45.455,25,20.478,20.478,0,0,1,25,45.455Z" fill="#fff"/>
  <path id="Path_29" data-name="Path 29" d="M148.346,70a3.344,3.344,0,1,0,3.344,3.346A3.348,3.348,0,0,0,148.346,70Z" transform="translate(-123.346 -59.545)" fill="#fff"/>
  <path id="Path_30" data-name="Path 30" d="M152.508,140A2.508,2.508,0,0,0,150,142.508v15.049a2.508,2.508,0,0,0,5.016,0V142.508A2.508,2.508,0,0,0,152.508,140Z" transform="translate(-127.508 -120.043)" fill="#fff"/>
</svg>
