<svg id="mouse" xmlns="http://www.w3.org/2000/svg" width="30.5" height="51.845" viewBox="0 0 30.5 51.845">
  <path id="Path_3" data-name="Path 3" d="M15.25,0A15.267,15.267,0,0,0,0,15.25V36.6a15.25,15.25,0,0,0,30.5,0V15.25A15.267,15.267,0,0,0,15.25,0ZM27.389,36.6a12.139,12.139,0,1,1-24.279,0V15.25a12.139,12.139,0,1,1,24.279,0Zm0,0" transform="translate(0 0)" fill="#fff"/>
  <path id="Path_4" data-name="Path 4" d="M136.8,101.852a1.555,1.555,0,0,0-1.555,1.555v7.159a1.555,1.555,0,1,0,3.111,0v-7.159A1.555,1.555,0,0,0,136.8,101.852Zm0,0" transform="translate(-121.551 -91.538)" fill="#fff"/>
</svg>
